<svg height="511pt" viewBox="1 -11 511.99995 511" width="511pt" xmlns="http://www.w3.org/2000/svg">
<path d="m.03125 139.25h511.96875v350.167969h-511.96875zm0 0" fill="#60dc4d"/>
<path d="m255.085938 139.25h256.914062v350.167969h-256.914062zm0 0" fill="#4fb43f"/>
<path d="m512 56.882812c0 11.78125-4.53125 22.910157-12.757812 31.339844-8.230469 8.4375-19.238282 13.238282-31.019532 13.527344l-213.136718 5.242188-32.738282.800781-29.996094.738281-4.390624.109375-48.925782-12.128906 3.597656-14.550781v-50.15625l-3.597656-14.558594 48.925782-12.117188 4.390624.109375 29.996094.738281 32.738282.800782 213.136718 5.238281c11.78125.292969 22.789063 5.089844 31.019532 13.519531 8.226562 8.441406 12.757812 19.570313 12.757812 31.347656zm0 0" fill="#bc9a7b"/><path d="m222.347656 5.976562v101.816407l-29.996094.738281v-103.292969zm0 0" fill="#60dc4d"/><path d="m108.84375 184.730469c-31.246094 0-56.667969 25.421875-56.667969 56.667969 0 31.246093 25.421875 56.667968 56.667969 56.667968s56.667969-25.421875 56.667969-56.667968c0-31.246094-25.421875-56.667969-56.667969-56.667969zm0 0" fill="#e0e0e2"/><path d="m108.84375 330.605469c-31.246094 0-56.667969 25.421875-56.667969 56.667969 0 31.246093 25.421875 56.667968 56.667969 56.667968s56.667969-25.421875 56.667969-56.667968c0-31.246094-25.421875-56.667969-56.667969-56.667969zm0 0" fill="#e0e0e2"/><path d="m311.753906 241.390625c0 31.25-25.417968 56.679687-56.667968 56.679687-31.246094 0-56.664063-25.429687-56.664063-56.679687 0-31.234375 25.417969-56.664063 56.664063-56.664063 31.25 0 56.667968 25.429688 56.667968 56.664063zm0 0" fill="#08f"/><path d="m311.753906 387.273438c0 31.246093-25.417968 56.664062-56.667968 56.664062-31.246094 0-56.664063-25.417969-56.664063-56.664062 0-31.25 25.417969-56.667969 56.664063-56.667969 31.25 0 56.667968 25.417969 56.667968 56.667969zm0 0" fill="#08f"/><path d="m401.335938 184.730469c-31.246094 0-56.667969 25.421875-56.667969 56.667969 0 31.246093 25.421875 56.667968 56.667969 56.667968 31.246093 0 56.667968-25.421875 56.667968-56.667968 0-31.246094-25.421875-56.667969-56.667968-56.667969zm0 0" fill="#c1001b"/><path d="m401.335938 330.605469c-31.246094 0-56.667969 25.421875-56.667969 56.667969 0 31.246093 25.421875 56.667968 56.667969 56.667968 31.246093 0 56.667968-25.421875 56.667968-56.667968 0-31.246094-25.421875-56.667969-56.667968-56.667969zm0 0" fill="#c1001b"/><path d="m101.457031.5c-38.421875 0-83.984375 40.679688-89.050781 45.316406l-12.40625 11.355469 12.691406 11.03125c5.304688 4.613281 52.875 45.0625 88.765625 45.0625 31.089844 0 56.382813-25.292969 56.382813-56.382813 0-31.089843-25.292969-56.382812-56.382813-56.382812zm0 0" fill="#f6d32b"/><path d="m311.753906 387.273438c0 31.246093-25.417968 56.664062-56.667968 56.664062v-113.332031c31.25 0 56.667968 25.417969 56.667968 56.667969zm0 0" fill="#006ef4"/><path d="m311.753906 241.390625c0 31.25-25.417968 56.679687-56.667968 56.679687v-113.34375c31.25 0 56.667968 25.429688 56.667968 56.664063zm0 0" fill="#006ef4"/><path d="m512 56.882812c0 11.78125-4.53125 22.910157-12.757812 31.339844-8.230469 8.4375-19.238282 13.238282-31.019532 13.527344l-213.136718 5.242188v-100.214844l213.136718 5.238281c11.78125.292969 22.789063 5.089844 31.019532 13.519531 8.226562 8.441406 12.757812 19.570313 12.757812 31.347656zm0 0" fill="#b28965"/></svg>